<svg width="25" height="25" viewBox="0 0 25 25" fill="none" xmlns="http://www.w3.org/2000/svg">
<g clip-path="url(#clip0_1_12)">
<path d="M7.29167 11.4583V19.7917C7.29167 20.0679 7.18192 20.3329 6.98657 20.5282C6.79122 20.7236 6.52627 20.8333 6.25 20.8333H4.16667C3.8904 20.8333 3.62545 20.7236 3.4301 20.5282C3.23475 20.3329 3.125 20.0679 3.125 19.7917V12.5C3.125 12.2237 3.23475 11.9588 3.4301 11.7634C3.62545 11.5681 3.8904 11.4583 4.16667 11.4583H7.29167ZM7.29167 11.4583C8.39674 11.4583 9.45654 11.0194 10.2379 10.238C11.0193 9.45655 11.4583 8.39674 11.4583 7.29167V6.25001C11.4583 5.69747 11.6778 5.16757 12.0685 4.77687C12.4592 4.38617 12.9891 4.16667 13.5417 4.16667C14.0942 4.16667 14.6241 4.38617 15.0148 4.77687C15.4055 5.16757 15.625 5.69747 15.625 6.25001V11.4583H18.75C19.3025 11.4583 19.8324 11.6778 20.2231 12.0685C20.6138 12.4592 20.8333 12.9891 20.8333 13.5417L19.7917 18.75C19.6419 19.389 19.3577 19.9378 18.9819 20.3135C18.6062 20.6893 18.1592 20.8717 17.7083 20.8333H10.4167C9.58787 20.8333 8.79301 20.5041 8.20696 19.918C7.62091 19.332 7.29167 18.5371 7.29167 17.7083" stroke="white" stroke-width="1.5625" stroke-linecap="round" stroke-linejoin="round"/>
</g>
<defs>
<clipPath id="clip0_1_12">
<rect width="25" height="25" fill="white"/>
</clipPath>
</defs>
</svg>
